<mxfile host="Electron" agent="Mozilla/5.0 (Windows NT 10.0; Win64; x64) AppleWebKit/537.36 (KHTML, like Gecko) draw.io/27.0.2 Chrome/134.0.6998.205 Electron/35.3.0 Safari/537.36" version="27.0.2">
  <diagram name="1 oldal" id="ruYBRmSu-fuK-3NBplOH">
    <mxGraphModel dx="4031" dy="2571" grid="1" gridSize="10" guides="1" tooltips="1" connect="1" arrows="1" fold="1" page="1" pageScale="1" pageWidth="827" pageHeight="1169" math="0" shadow="0">
      <root>
        <mxCell id="0" />
        <mxCell id="1" parent="0" />
        <mxCell id="eyfMLkaHUwFLunctIVYx-1" value="Hotel" style="ellipse;whiteSpace=wrap;html=1;" vertex="1" parent="1">
          <mxGeometry x="390" y="-80" width="120" height="80" as="geometry" />
        </mxCell>
        <mxCell id="eyfMLkaHUwFLunctIVYx-7" value="" style="endArrow=none;html=1;rounded=0;entryX=0.5;entryY=1;entryDx=0;entryDy=0;exitX=0.5;exitY=0;exitDx=0;exitDy=0;" edge="1" parent="1" source="eyfMLkaHUwFLunctIVYx-12" target="eyfMLkaHUwFLunctIVYx-1">
          <mxGeometry width="50" height="50" relative="1" as="geometry">
            <mxPoint x="-330" y="309" as="sourcePoint" />
            <mxPoint x="-190" y="180" as="targetPoint" />
          </mxGeometry>
        </mxCell>
        <mxCell id="eyfMLkaHUwFLunctIVYx-8" value="" style="endArrow=none;html=1;rounded=0;entryX=0.5;entryY=1;entryDx=0;entryDy=0;exitX=0.5;exitY=0;exitDx=0;exitDy=0;" edge="1" parent="1" source="eyfMLkaHUwFLunctIVYx-13" target="eyfMLkaHUwFLunctIVYx-1">
          <mxGeometry width="50" height="50" relative="1" as="geometry">
            <mxPoint x="110.00000000000045" y="320" as="sourcePoint" />
            <mxPoint x="340" y="10" as="targetPoint" />
          </mxGeometry>
        </mxCell>
        <mxCell id="eyfMLkaHUwFLunctIVYx-9" value="" style="endArrow=none;html=1;rounded=0;entryX=0.5;entryY=1;entryDx=0;entryDy=0;exitX=0.5;exitY=0;exitDx=0;exitDy=0;" edge="1" parent="1" source="eyfMLkaHUwFLunctIVYx-14" target="eyfMLkaHUwFLunctIVYx-1">
          <mxGeometry width="50" height="50" relative="1" as="geometry">
            <mxPoint x="390" y="330" as="sourcePoint" />
            <mxPoint x="350" y="20" as="targetPoint" />
          </mxGeometry>
        </mxCell>
        <mxCell id="eyfMLkaHUwFLunctIVYx-10" value="" style="endArrow=none;html=1;rounded=0;entryX=0.5;entryY=1;entryDx=0;entryDy=0;exitX=0.5;exitY=0;exitDx=0;exitDy=0;" edge="1" parent="1" source="eyfMLkaHUwFLunctIVYx-15" target="eyfMLkaHUwFLunctIVYx-1">
          <mxGeometry width="50" height="50" relative="1" as="geometry">
            <mxPoint x="670" y="320" as="sourcePoint" />
            <mxPoint x="360" y="30" as="targetPoint" />
          </mxGeometry>
        </mxCell>
        <mxCell id="eyfMLkaHUwFLunctIVYx-11" value="" style="endArrow=none;html=1;rounded=0;entryX=0.5;entryY=1;entryDx=0;entryDy=0;exitX=0.5;exitY=0;exitDx=0;exitDy=0;" edge="1" parent="1" source="eyfMLkaHUwFLunctIVYx-17" target="eyfMLkaHUwFLunctIVYx-1">
          <mxGeometry width="50" height="50" relative="1" as="geometry">
            <mxPoint x="950" y="320" as="sourcePoint" />
            <mxPoint x="370" y="40" as="targetPoint" />
          </mxGeometry>
        </mxCell>
        <mxCell id="eyfMLkaHUwFLunctIVYx-12" value="Vendég" style="ellipse;shape=doubleEllipse;whiteSpace=wrap;html=1;" vertex="1" parent="1">
          <mxGeometry x="-585" y="260" width="100" height="60" as="geometry" />
        </mxCell>
        <mxCell id="eyfMLkaHUwFLunctIVYx-13" value="Szoba" style="ellipse;shape=doubleEllipse;whiteSpace=wrap;html=1;" vertex="1" parent="1">
          <mxGeometry x="-30" y="330" width="100" height="60" as="geometry" />
        </mxCell>
        <mxCell id="eyfMLkaHUwFLunctIVYx-14" value="Foglalás" style="ellipse;shape=doubleEllipse;whiteSpace=wrap;html=1;" vertex="1" parent="1">
          <mxGeometry x="400" y="350" width="100" height="60" as="geometry" />
        </mxCell>
        <mxCell id="eyfMLkaHUwFLunctIVYx-15" value="Felhasználó" style="ellipse;shape=doubleEllipse;whiteSpace=wrap;html=1;" vertex="1" parent="1">
          <mxGeometry x="970" y="350" width="100" height="60" as="geometry" />
        </mxCell>
        <mxCell id="eyfMLkaHUwFLunctIVYx-17" value="Bejlentkezés" style="ellipse;shape=doubleEllipse;whiteSpace=wrap;html=1;" vertex="1" parent="1">
          <mxGeometry x="1450" y="250" width="100" height="60" as="geometry" />
        </mxCell>
        <mxCell id="eyfMLkaHUwFLunctIVYx-18" value="&lt;em data-end=&quot;330&quot; data-start=&quot;320&quot;&gt;vendégID&lt;/em&gt; (kulcs)" style="rhombus;whiteSpace=wrap;html=1;" vertex="1" parent="1">
          <mxGeometry x="-730" y="250" width="80" height="80" as="geometry" />
        </mxCell>
        <mxCell id="eyfMLkaHUwFLunctIVYx-19" value="&lt;em data-end=&quot;448&quot; data-start=&quot;437&quot;&gt;szobaSzám&lt;/em&gt; (kulcs)" style="rhombus;whiteSpace=wrap;html=1;" vertex="1" parent="1">
          <mxGeometry x="-170" y="320" width="80" height="80" as="geometry" />
        </mxCell>
        <mxCell id="eyfMLkaHUwFLunctIVYx-20" value="&lt;em data-end=&quot;651&quot; data-start=&quot;639&quot;&gt;foglalásID&lt;/em&gt; (kulcs)" style="rhombus;whiteSpace=wrap;html=1;" vertex="1" parent="1">
          <mxGeometry x="270" y="340" width="80" height="80" as="geometry" />
        </mxCell>
        <mxCell id="eyfMLkaHUwFLunctIVYx-21" value="felhasználóNév (idegen kulcs)" style="rhombus;whiteSpace=wrap;html=1;" vertex="1" parent="1">
          <mxGeometry x="1300" y="240" width="80" height="80" as="geometry" />
        </mxCell>
        <mxCell id="eyfMLkaHUwFLunctIVYx-22" value="&lt;em data-end=&quot;941&quot; data-start=&quot;924&quot;&gt;bejelentkezésID&lt;/em&gt; (kulcs)" style="rhombus;whiteSpace=wrap;html=1;" vertex="1" parent="1">
          <mxGeometry x="1630" y="240" width="80" height="80" as="geometry" />
        </mxCell>
        <mxCell id="eyfMLkaHUwFLunctIVYx-23" value="nem" style="ellipse;whiteSpace=wrap;html=1;" vertex="1" parent="1">
          <mxGeometry x="-690" y="440" width="90" height="50" as="geometry" />
        </mxCell>
        <mxCell id="eyfMLkaHUwFLunctIVYx-24" value="ország" style="ellipse;whiteSpace=wrap;html=1;" vertex="1" parent="1">
          <mxGeometry x="-580" y="440" width="90" height="50" as="geometry" />
        </mxCell>
        <mxCell id="eyfMLkaHUwFLunctIVYx-25" value="név" style="ellipse;whiteSpace=wrap;html=1;" vertex="1" parent="1">
          <mxGeometry x="-810" y="440" width="90" height="50" as="geometry" />
        </mxCell>
        <mxCell id="eyfMLkaHUwFLunctIVYx-26" value="okmánySzám" style="ellipse;whiteSpace=wrap;html=1;" vertex="1" parent="1">
          <mxGeometry x="-470" y="440" width="90" height="50" as="geometry" />
        </mxCell>
        <mxCell id="eyfMLkaHUwFLunctIVYx-27" value="érkezésDátuma" style="ellipse;whiteSpace=wrap;html=1;" vertex="1" parent="1">
          <mxGeometry x="-360" y="440" width="90" height="50" as="geometry" />
        </mxCell>
        <mxCell id="eyfMLkaHUwFLunctIVYx-28" value="" style="endArrow=none;html=1;rounded=0;entryX=0;entryY=0.5;entryDx=0;entryDy=0;exitX=1;exitY=0.5;exitDx=0;exitDy=0;" edge="1" parent="1" source="eyfMLkaHUwFLunctIVYx-18" target="eyfMLkaHUwFLunctIVYx-12">
          <mxGeometry width="50" height="50" relative="1" as="geometry">
            <mxPoint x="-400" y="510" as="sourcePoint" />
            <mxPoint x="-350" y="460" as="targetPoint" />
          </mxGeometry>
        </mxCell>
        <mxCell id="eyfMLkaHUwFLunctIVYx-29" value="" style="endArrow=none;html=1;rounded=0;entryX=0.5;entryY=1;entryDx=0;entryDy=0;exitX=0.5;exitY=0;exitDx=0;exitDy=0;" edge="1" parent="1" source="eyfMLkaHUwFLunctIVYx-27" target="eyfMLkaHUwFLunctIVYx-12">
          <mxGeometry width="50" height="50" relative="1" as="geometry">
            <mxPoint x="-400" y="510" as="sourcePoint" />
            <mxPoint x="-350" y="460" as="targetPoint" />
          </mxGeometry>
        </mxCell>
        <mxCell id="eyfMLkaHUwFLunctIVYx-30" value="" style="endArrow=none;html=1;rounded=0;entryX=0.5;entryY=1;entryDx=0;entryDy=0;exitX=0.5;exitY=0;exitDx=0;exitDy=0;" edge="1" parent="1" source="eyfMLkaHUwFLunctIVYx-26" target="eyfMLkaHUwFLunctIVYx-12">
          <mxGeometry width="50" height="50" relative="1" as="geometry">
            <mxPoint x="-305" y="450" as="sourcePoint" />
            <mxPoint x="-525" y="330" as="targetPoint" />
          </mxGeometry>
        </mxCell>
        <mxCell id="eyfMLkaHUwFLunctIVYx-31" value="" style="endArrow=none;html=1;rounded=0;entryX=0.5;entryY=1;entryDx=0;entryDy=0;exitX=0.5;exitY=0;exitDx=0;exitDy=0;" edge="1" parent="1" source="eyfMLkaHUwFLunctIVYx-24" target="eyfMLkaHUwFLunctIVYx-12">
          <mxGeometry width="50" height="50" relative="1" as="geometry">
            <mxPoint x="-295" y="460" as="sourcePoint" />
            <mxPoint x="-515" y="340" as="targetPoint" />
          </mxGeometry>
        </mxCell>
        <mxCell id="eyfMLkaHUwFLunctIVYx-32" value="" style="endArrow=none;html=1;rounded=0;entryX=0.5;entryY=1;entryDx=0;entryDy=0;exitX=0.5;exitY=0;exitDx=0;exitDy=0;" edge="1" parent="1" source="eyfMLkaHUwFLunctIVYx-23" target="eyfMLkaHUwFLunctIVYx-12">
          <mxGeometry width="50" height="50" relative="1" as="geometry">
            <mxPoint x="-285" y="470" as="sourcePoint" />
            <mxPoint x="-505" y="350" as="targetPoint" />
          </mxGeometry>
        </mxCell>
        <mxCell id="eyfMLkaHUwFLunctIVYx-33" value="" style="endArrow=none;html=1;rounded=0;entryX=0.5;entryY=1;entryDx=0;entryDy=0;exitX=0.5;exitY=0;exitDx=0;exitDy=0;" edge="1" parent="1" source="eyfMLkaHUwFLunctIVYx-25" target="eyfMLkaHUwFLunctIVYx-12">
          <mxGeometry width="50" height="50" relative="1" as="geometry">
            <mxPoint x="-275" y="480" as="sourcePoint" />
            <mxPoint x="-495" y="360" as="targetPoint" />
          </mxGeometry>
        </mxCell>
        <mxCell id="eyfMLkaHUwFLunctIVYx-35" value="" style="rounded=0;whiteSpace=wrap;html=1;" vertex="1" parent="1">
          <mxGeometry x="-785" y="550" width="40" height="60" as="geometry" />
        </mxCell>
        <mxCell id="eyfMLkaHUwFLunctIVYx-36" value="" style="rounded=0;whiteSpace=wrap;html=1;" vertex="1" parent="1">
          <mxGeometry x="-665" y="555" width="40" height="60" as="geometry" />
        </mxCell>
        <mxCell id="eyfMLkaHUwFLunctIVYx-37" value="" style="rounded=0;whiteSpace=wrap;html=1;" vertex="1" parent="1">
          <mxGeometry x="-555" y="555" width="40" height="60" as="geometry" />
        </mxCell>
        <mxCell id="eyfMLkaHUwFLunctIVYx-38" value="" style="rounded=0;whiteSpace=wrap;html=1;" vertex="1" parent="1">
          <mxGeometry x="-445" y="555" width="40" height="60" as="geometry" />
        </mxCell>
        <mxCell id="eyfMLkaHUwFLunctIVYx-39" value="" style="rounded=0;whiteSpace=wrap;html=1;" vertex="1" parent="1">
          <mxGeometry x="-335" y="555" width="40" height="60" as="geometry" />
        </mxCell>
        <mxCell id="eyfMLkaHUwFLunctIVYx-40" value="" style="endArrow=none;html=1;rounded=0;entryX=0.5;entryY=1;entryDx=0;entryDy=0;exitX=0.5;exitY=0;exitDx=0;exitDy=0;" edge="1" parent="1" source="eyfMLkaHUwFLunctIVYx-35" target="eyfMLkaHUwFLunctIVYx-25">
          <mxGeometry width="50" height="50" relative="1" as="geometry">
            <mxPoint x="-790" y="555" as="sourcePoint" />
            <mxPoint x="-740" y="505" as="targetPoint" />
          </mxGeometry>
        </mxCell>
        <mxCell id="eyfMLkaHUwFLunctIVYx-41" value="" style="endArrow=none;html=1;rounded=0;entryX=0.5;entryY=1;entryDx=0;entryDy=0;exitX=0.5;exitY=0;exitDx=0;exitDy=0;" edge="1" parent="1" source="eyfMLkaHUwFLunctIVYx-36" target="eyfMLkaHUwFLunctIVYx-23">
          <mxGeometry width="50" height="50" relative="1" as="geometry">
            <mxPoint x="-760" y="570" as="sourcePoint" />
            <mxPoint x="-755" y="500" as="targetPoint" />
          </mxGeometry>
        </mxCell>
        <mxCell id="eyfMLkaHUwFLunctIVYx-42" value="" style="endArrow=none;html=1;rounded=0;entryX=0.5;entryY=1;entryDx=0;entryDy=0;exitX=0.5;exitY=0;exitDx=0;exitDy=0;" edge="1" parent="1" source="eyfMLkaHUwFLunctIVYx-37" target="eyfMLkaHUwFLunctIVYx-24">
          <mxGeometry width="50" height="50" relative="1" as="geometry">
            <mxPoint x="-750" y="580" as="sourcePoint" />
            <mxPoint x="-745" y="510" as="targetPoint" />
          </mxGeometry>
        </mxCell>
        <mxCell id="eyfMLkaHUwFLunctIVYx-43" value="" style="endArrow=none;html=1;rounded=0;entryX=0.5;entryY=1;entryDx=0;entryDy=0;exitX=0.5;exitY=0;exitDx=0;exitDy=0;" edge="1" parent="1" source="eyfMLkaHUwFLunctIVYx-38" target="eyfMLkaHUwFLunctIVYx-26">
          <mxGeometry width="50" height="50" relative="1" as="geometry">
            <mxPoint x="-740" y="590" as="sourcePoint" />
            <mxPoint x="-735" y="520" as="targetPoint" />
          </mxGeometry>
        </mxCell>
        <mxCell id="eyfMLkaHUwFLunctIVYx-44" value="" style="endArrow=none;html=1;rounded=0;entryX=0.5;entryY=1;entryDx=0;entryDy=0;exitX=0.5;exitY=0;exitDx=0;exitDy=0;" edge="1" parent="1" source="eyfMLkaHUwFLunctIVYx-39" target="eyfMLkaHUwFLunctIVYx-27">
          <mxGeometry width="50" height="50" relative="1" as="geometry">
            <mxPoint x="-730" y="600" as="sourcePoint" />
            <mxPoint x="-725" y="530" as="targetPoint" />
          </mxGeometry>
        </mxCell>
        <mxCell id="eyfMLkaHUwFLunctIVYx-46" value="ágyszám" style="ellipse;whiteSpace=wrap;html=1;" vertex="1" parent="1">
          <mxGeometry x="-180" y="450" width="100" height="50" as="geometry" />
        </mxCell>
        <mxCell id="eyfMLkaHUwFLunctIVYx-47" value="foglaltságStátusz" style="ellipse;whiteSpace=wrap;html=1;" vertex="1" parent="1">
          <mxGeometry x="120" y="455" width="100" height="50" as="geometry" />
        </mxCell>
        <mxCell id="eyfMLkaHUwFLunctIVYx-48" value="típus" style="ellipse;whiteSpace=wrap;html=1;" vertex="1" parent="1">
          <mxGeometry x="-30" y="455" width="100" height="50" as="geometry" />
        </mxCell>
        <mxCell id="eyfMLkaHUwFLunctIVYx-49" value="egyágyas" style="ellipse;whiteSpace=wrap;html=1;" vertex="1" parent="1">
          <mxGeometry x="-90" y="550" width="100" height="50" as="geometry" />
        </mxCell>
        <mxCell id="eyfMLkaHUwFLunctIVYx-50" value="kétágyas" style="ellipse;whiteSpace=wrap;html=1;" vertex="1" parent="1">
          <mxGeometry x="20" y="550" width="100" height="50" as="geometry" />
        </mxCell>
        <mxCell id="eyfMLkaHUwFLunctIVYx-51" value="" style="endArrow=none;html=1;rounded=0;entryX=0.5;entryY=1;entryDx=0;entryDy=0;exitX=0.5;exitY=0;exitDx=0;exitDy=0;" edge="1" parent="1" source="eyfMLkaHUwFLunctIVYx-48" target="eyfMLkaHUwFLunctIVYx-13">
          <mxGeometry width="50" height="50" relative="1" as="geometry">
            <mxPoint x="90" y="510" as="sourcePoint" />
            <mxPoint x="140" y="460" as="targetPoint" />
          </mxGeometry>
        </mxCell>
        <mxCell id="eyfMLkaHUwFLunctIVYx-52" value="" style="endArrow=none;html=1;rounded=0;entryX=0.5;entryY=1;entryDx=0;entryDy=0;exitX=0.5;exitY=0;exitDx=0;exitDy=0;" edge="1" parent="1" source="eyfMLkaHUwFLunctIVYx-47" target="eyfMLkaHUwFLunctIVYx-13">
          <mxGeometry width="50" height="50" relative="1" as="geometry">
            <mxPoint x="90" y="510" as="sourcePoint" />
            <mxPoint x="140" y="460" as="targetPoint" />
          </mxGeometry>
        </mxCell>
        <mxCell id="eyfMLkaHUwFLunctIVYx-53" value="" style="endArrow=none;html=1;rounded=0;entryX=0.5;entryY=1;entryDx=0;entryDy=0;exitX=0.5;exitY=0;exitDx=0;exitDy=0;" edge="1" parent="1" source="eyfMLkaHUwFLunctIVYx-46" target="eyfMLkaHUwFLunctIVYx-13">
          <mxGeometry width="50" height="50" relative="1" as="geometry">
            <mxPoint x="90" y="510" as="sourcePoint" />
            <mxPoint x="140" y="460" as="targetPoint" />
          </mxGeometry>
        </mxCell>
        <mxCell id="eyfMLkaHUwFLunctIVYx-54" value="" style="endArrow=none;html=1;rounded=0;entryX=0;entryY=0.5;entryDx=0;entryDy=0;exitX=1;exitY=0.5;exitDx=0;exitDy=0;" edge="1" parent="1" source="eyfMLkaHUwFLunctIVYx-19" target="eyfMLkaHUwFLunctIVYx-13">
          <mxGeometry width="50" height="50" relative="1" as="geometry">
            <mxPoint x="90" y="510" as="sourcePoint" />
            <mxPoint x="140" y="460" as="targetPoint" />
          </mxGeometry>
        </mxCell>
        <mxCell id="eyfMLkaHUwFLunctIVYx-55" value="" style="endArrow=none;html=1;rounded=0;entryX=0.5;entryY=1;entryDx=0;entryDy=0;exitX=0.5;exitY=0;exitDx=0;exitDy=0;" edge="1" parent="1" source="eyfMLkaHUwFLunctIVYx-50" target="eyfMLkaHUwFLunctIVYx-48">
          <mxGeometry width="50" height="50" relative="1" as="geometry">
            <mxPoint x="90" y="510" as="sourcePoint" />
            <mxPoint x="140" y="460" as="targetPoint" />
          </mxGeometry>
        </mxCell>
        <mxCell id="eyfMLkaHUwFLunctIVYx-56" value="" style="endArrow=none;html=1;rounded=0;entryX=0.5;entryY=1;entryDx=0;entryDy=0;exitX=0.5;exitY=0;exitDx=0;exitDy=0;" edge="1" parent="1" source="eyfMLkaHUwFLunctIVYx-49" target="eyfMLkaHUwFLunctIVYx-48">
          <mxGeometry width="50" height="50" relative="1" as="geometry">
            <mxPoint x="90" y="510" as="sourcePoint" />
            <mxPoint x="140" y="460" as="targetPoint" />
          </mxGeometry>
        </mxCell>
        <mxCell id="eyfMLkaHUwFLunctIVYx-57" value="" style="rounded=0;whiteSpace=wrap;html=1;" vertex="1" parent="1">
          <mxGeometry x="-60" y="650" width="40" height="60" as="geometry" />
        </mxCell>
        <mxCell id="eyfMLkaHUwFLunctIVYx-58" value="" style="rounded=0;whiteSpace=wrap;html=1;" vertex="1" parent="1">
          <mxGeometry x="50" y="650" width="40" height="60" as="geometry" />
        </mxCell>
        <mxCell id="eyfMLkaHUwFLunctIVYx-59" value="" style="rounded=0;whiteSpace=wrap;html=1;" vertex="1" parent="1">
          <mxGeometry x="-150" y="540" width="40" height="60" as="geometry" />
        </mxCell>
        <mxCell id="eyfMLkaHUwFLunctIVYx-60" value="" style="rounded=0;whiteSpace=wrap;html=1;" vertex="1" parent="1">
          <mxGeometry x="150" y="545" width="40" height="60" as="geometry" />
        </mxCell>
        <mxCell id="eyfMLkaHUwFLunctIVYx-61" value="" style="endArrow=none;html=1;rounded=0;entryX=0.5;entryY=1;entryDx=0;entryDy=0;exitX=0.5;exitY=0;exitDx=0;exitDy=0;" edge="1" parent="1" source="eyfMLkaHUwFLunctIVYx-60" target="eyfMLkaHUwFLunctIVYx-47">
          <mxGeometry width="50" height="50" relative="1" as="geometry">
            <mxPoint x="90" y="510" as="sourcePoint" />
            <mxPoint x="140" y="460" as="targetPoint" />
          </mxGeometry>
        </mxCell>
        <mxCell id="eyfMLkaHUwFLunctIVYx-63" value="" style="endArrow=none;html=1;rounded=0;entryX=0.5;entryY=1;entryDx=0;entryDy=0;exitX=0.5;exitY=0;exitDx=0;exitDy=0;" edge="1" parent="1" source="eyfMLkaHUwFLunctIVYx-59" target="eyfMLkaHUwFLunctIVYx-46">
          <mxGeometry width="50" height="50" relative="1" as="geometry">
            <mxPoint x="90" y="510" as="sourcePoint" />
            <mxPoint x="140" y="460" as="targetPoint" />
          </mxGeometry>
        </mxCell>
        <mxCell id="eyfMLkaHUwFLunctIVYx-64" value="" style="endArrow=none;html=1;rounded=0;entryX=0.5;entryY=1;entryDx=0;entryDy=0;exitX=0.5;exitY=0;exitDx=0;exitDy=0;" edge="1" parent="1" source="eyfMLkaHUwFLunctIVYx-58" target="eyfMLkaHUwFLunctIVYx-50">
          <mxGeometry width="50" height="50" relative="1" as="geometry">
            <mxPoint x="90" y="510" as="sourcePoint" />
            <mxPoint x="140" y="460" as="targetPoint" />
          </mxGeometry>
        </mxCell>
        <mxCell id="eyfMLkaHUwFLunctIVYx-65" value="" style="endArrow=none;html=1;rounded=0;exitX=0.5;exitY=0;exitDx=0;exitDy=0;entryX=0.5;entryY=1;entryDx=0;entryDy=0;" edge="1" parent="1" source="eyfMLkaHUwFLunctIVYx-57" target="eyfMLkaHUwFLunctIVYx-49">
          <mxGeometry width="50" height="50" relative="1" as="geometry">
            <mxPoint x="90" y="510" as="sourcePoint" />
            <mxPoint x="140" y="460" as="targetPoint" />
          </mxGeometry>
        </mxCell>
        <mxCell id="eyfMLkaHUwFLunctIVYx-66" value="" style="endArrow=none;html=1;rounded=0;exitX=1;exitY=0.5;exitDx=0;exitDy=0;entryX=0;entryY=0.5;entryDx=0;entryDy=0;" edge="1" parent="1" source="eyfMLkaHUwFLunctIVYx-20" target="eyfMLkaHUwFLunctIVYx-14">
          <mxGeometry width="50" height="50" relative="1" as="geometry">
            <mxPoint x="400" y="510" as="sourcePoint" />
            <mxPoint x="450" y="460" as="targetPoint" />
          </mxGeometry>
        </mxCell>
        <mxCell id="eyfMLkaHUwFLunctIVYx-67" value="vendégID (idegen kulcs)" style="rhombus;whiteSpace=wrap;html=1;" vertex="1" parent="1">
          <mxGeometry x="560" y="340" width="80" height="80" as="geometry" />
        </mxCell>
        <mxCell id="eyfMLkaHUwFLunctIVYx-68" value="" style="endArrow=none;html=1;rounded=0;entryX=0;entryY=0.5;entryDx=0;entryDy=0;exitX=1;exitY=0.5;exitDx=0;exitDy=0;" edge="1" parent="1" source="eyfMLkaHUwFLunctIVYx-14" target="eyfMLkaHUwFLunctIVYx-67">
          <mxGeometry width="50" height="50" relative="1" as="geometry">
            <mxPoint x="400" y="510" as="sourcePoint" />
            <mxPoint x="450" y="460" as="targetPoint" />
          </mxGeometry>
        </mxCell>
        <mxCell id="eyfMLkaHUwFLunctIVYx-69" value="szobaSzám (idegen kulcs)" style="rhombus;whiteSpace=wrap;html=1;" vertex="1" parent="1">
          <mxGeometry x="560" y="230" width="80" height="80" as="geometry" />
        </mxCell>
        <mxCell id="eyfMLkaHUwFLunctIVYx-70" value="" style="endArrow=none;html=1;rounded=0;entryX=0;entryY=1;entryDx=0;entryDy=0;exitX=1;exitY=0;exitDx=0;exitDy=0;" edge="1" parent="1" source="eyfMLkaHUwFLunctIVYx-14" target="eyfMLkaHUwFLunctIVYx-69">
          <mxGeometry width="50" height="50" relative="1" as="geometry">
            <mxPoint x="400" y="510" as="sourcePoint" />
            <mxPoint x="450" y="460" as="targetPoint" />
          </mxGeometry>
        </mxCell>
        <mxCell id="eyfMLkaHUwFLunctIVYx-72" value="érkezésDátuma" style="ellipse;whiteSpace=wrap;html=1;" vertex="1" parent="1">
          <mxGeometry x="330" y="470" width="100" height="50" as="geometry" />
        </mxCell>
        <mxCell id="eyfMLkaHUwFLunctIVYx-73" value="távozásDátuma" style="ellipse;whiteSpace=wrap;html=1;" vertex="1" parent="1">
          <mxGeometry x="470" y="470" width="100" height="50" as="geometry" />
        </mxCell>
        <mxCell id="eyfMLkaHUwFLunctIVYx-74" value="" style="endArrow=none;html=1;rounded=0;entryX=0.5;entryY=1;entryDx=0;entryDy=0;exitX=0.5;exitY=0;exitDx=0;exitDy=0;" edge="1" parent="1" source="eyfMLkaHUwFLunctIVYx-72" target="eyfMLkaHUwFLunctIVYx-14">
          <mxGeometry width="50" height="50" relative="1" as="geometry">
            <mxPoint x="400" y="650" as="sourcePoint" />
            <mxPoint x="450" y="600" as="targetPoint" />
          </mxGeometry>
        </mxCell>
        <mxCell id="eyfMLkaHUwFLunctIVYx-75" value="" style="endArrow=none;html=1;rounded=0;entryX=0.5;entryY=1;entryDx=0;entryDy=0;exitX=0.5;exitY=0;exitDx=0;exitDy=0;" edge="1" parent="1" source="eyfMLkaHUwFLunctIVYx-73" target="eyfMLkaHUwFLunctIVYx-14">
          <mxGeometry width="50" height="50" relative="1" as="geometry">
            <mxPoint x="400" y="650" as="sourcePoint" />
            <mxPoint x="450" y="600" as="targetPoint" />
          </mxGeometry>
        </mxCell>
        <mxCell id="eyfMLkaHUwFLunctIVYx-76" value="" style="rounded=0;whiteSpace=wrap;html=1;" vertex="1" parent="1">
          <mxGeometry x="360" y="560" width="40" height="60" as="geometry" />
        </mxCell>
        <mxCell id="eyfMLkaHUwFLunctIVYx-77" value="" style="rounded=0;whiteSpace=wrap;html=1;" vertex="1" parent="1">
          <mxGeometry x="500" y="555" width="40" height="60" as="geometry" />
        </mxCell>
        <mxCell id="eyfMLkaHUwFLunctIVYx-78" value="" style="endArrow=none;html=1;rounded=0;entryX=0.5;entryY=1;entryDx=0;entryDy=0;exitX=0.5;exitY=0;exitDx=0;exitDy=0;" edge="1" parent="1" source="eyfMLkaHUwFLunctIVYx-76" target="eyfMLkaHUwFLunctIVYx-72">
          <mxGeometry width="50" height="50" relative="1" as="geometry">
            <mxPoint x="400" y="650" as="sourcePoint" />
            <mxPoint x="450" y="600" as="targetPoint" />
          </mxGeometry>
        </mxCell>
        <mxCell id="eyfMLkaHUwFLunctIVYx-80" value="" style="endArrow=none;html=1;rounded=0;entryX=0.5;entryY=1;entryDx=0;entryDy=0;exitX=0.5;exitY=0;exitDx=0;exitDy=0;" edge="1" parent="1" source="eyfMLkaHUwFLunctIVYx-77" target="eyfMLkaHUwFLunctIVYx-73">
          <mxGeometry width="50" height="50" relative="1" as="geometry">
            <mxPoint x="400" y="650" as="sourcePoint" />
            <mxPoint x="450" y="600" as="targetPoint" />
          </mxGeometry>
        </mxCell>
        <mxCell id="eyfMLkaHUwFLunctIVYx-81" value="&lt;em data-end=&quot;818&quot; data-start=&quot;802&quot;&gt;felhasználóNév&lt;/em&gt; (kulcs)" style="rhombus;whiteSpace=wrap;html=1;" vertex="1" parent="1">
          <mxGeometry x="840" y="340" width="80" height="80" as="geometry" />
        </mxCell>
        <mxCell id="eyfMLkaHUwFLunctIVYx-82" value="" style="endArrow=none;html=1;rounded=0;entryX=0;entryY=0.5;entryDx=0;entryDy=0;exitX=1;exitY=0.5;exitDx=0;exitDy=0;" edge="1" parent="1" source="eyfMLkaHUwFLunctIVYx-81" target="eyfMLkaHUwFLunctIVYx-15">
          <mxGeometry width="50" height="50" relative="1" as="geometry">
            <mxPoint x="900" y="410" as="sourcePoint" />
            <mxPoint x="950" y="360" as="targetPoint" />
          </mxGeometry>
        </mxCell>
        <mxCell id="eyfMLkaHUwFLunctIVYx-83" value="jelszó" style="ellipse;whiteSpace=wrap;html=1;" vertex="1" parent="1">
          <mxGeometry x="840" y="470" width="100" height="50" as="geometry" />
        </mxCell>
        <mxCell id="eyfMLkaHUwFLunctIVYx-84" value="jogosultságiSzint" style="ellipse;whiteSpace=wrap;html=1;" vertex="1" parent="1">
          <mxGeometry x="970" y="480" width="100" height="50" as="geometry" />
        </mxCell>
        <mxCell id="eyfMLkaHUwFLunctIVYx-85" value="utolsóBejelentkezés" style="ellipse;whiteSpace=wrap;html=1;" vertex="1" parent="1">
          <mxGeometry x="1100" y="470" width="100" height="50" as="geometry" />
        </mxCell>
        <mxCell id="eyfMLkaHUwFLunctIVYx-86" value="" style="endArrow=none;html=1;rounded=0;entryX=0.5;entryY=1;entryDx=0;entryDy=0;exitX=0.5;exitY=0;exitDx=0;exitDy=0;" edge="1" parent="1" source="eyfMLkaHUwFLunctIVYx-84" target="eyfMLkaHUwFLunctIVYx-15">
          <mxGeometry width="50" height="50" relative="1" as="geometry">
            <mxPoint x="410" y="440" as="sourcePoint" />
            <mxPoint x="460" y="390" as="targetPoint" />
          </mxGeometry>
        </mxCell>
        <mxCell id="eyfMLkaHUwFLunctIVYx-87" value="" style="endArrow=none;html=1;rounded=0;entryX=0.5;entryY=1;entryDx=0;entryDy=0;exitX=0.5;exitY=0;exitDx=0;exitDy=0;" edge="1" parent="1" source="eyfMLkaHUwFLunctIVYx-83" target="eyfMLkaHUwFLunctIVYx-15">
          <mxGeometry width="50" height="50" relative="1" as="geometry">
            <mxPoint x="410" y="440" as="sourcePoint" />
            <mxPoint x="460" y="390" as="targetPoint" />
          </mxGeometry>
        </mxCell>
        <mxCell id="eyfMLkaHUwFLunctIVYx-88" value="" style="endArrow=none;html=1;rounded=0;exitX=0.5;exitY=0;exitDx=0;exitDy=0;entryX=0.5;entryY=1;entryDx=0;entryDy=0;" edge="1" parent="1" source="eyfMLkaHUwFLunctIVYx-85" target="eyfMLkaHUwFLunctIVYx-15">
          <mxGeometry width="50" height="50" relative="1" as="geometry">
            <mxPoint x="410" y="440" as="sourcePoint" />
            <mxPoint x="460" y="390" as="targetPoint" />
          </mxGeometry>
        </mxCell>
        <mxCell id="eyfMLkaHUwFLunctIVYx-89" value="" style="rounded=0;whiteSpace=wrap;html=1;" vertex="1" parent="1">
          <mxGeometry x="870" y="560" width="40" height="60" as="geometry" />
        </mxCell>
        <mxCell id="eyfMLkaHUwFLunctIVYx-90" value="" style="rounded=0;whiteSpace=wrap;html=1;" vertex="1" parent="1">
          <mxGeometry x="1000" y="570" width="40" height="60" as="geometry" />
        </mxCell>
        <mxCell id="eyfMLkaHUwFLunctIVYx-91" value="" style="rounded=0;whiteSpace=wrap;html=1;" vertex="1" parent="1">
          <mxGeometry x="1130" y="570" width="40" height="60" as="geometry" />
        </mxCell>
        <mxCell id="eyfMLkaHUwFLunctIVYx-92" value="" style="endArrow=none;html=1;rounded=0;entryX=0.5;entryY=1;entryDx=0;entryDy=0;exitX=0.5;exitY=0;exitDx=0;exitDy=0;" edge="1" parent="1" source="eyfMLkaHUwFLunctIVYx-89" target="eyfMLkaHUwFLunctIVYx-83">
          <mxGeometry width="50" height="50" relative="1" as="geometry">
            <mxPoint x="410" y="440" as="sourcePoint" />
            <mxPoint x="460" y="390" as="targetPoint" />
          </mxGeometry>
        </mxCell>
        <mxCell id="eyfMLkaHUwFLunctIVYx-93" value="" style="endArrow=none;html=1;rounded=0;entryX=0.5;entryY=1;entryDx=0;entryDy=0;exitX=0.5;exitY=0;exitDx=0;exitDy=0;" edge="1" parent="1" source="eyfMLkaHUwFLunctIVYx-90" target="eyfMLkaHUwFLunctIVYx-84">
          <mxGeometry width="50" height="50" relative="1" as="geometry">
            <mxPoint x="910" y="570" as="sourcePoint" />
            <mxPoint x="900" y="530" as="targetPoint" />
          </mxGeometry>
        </mxCell>
        <mxCell id="eyfMLkaHUwFLunctIVYx-94" value="" style="endArrow=none;html=1;rounded=0;entryX=0.5;entryY=1;entryDx=0;entryDy=0;exitX=0.5;exitY=0;exitDx=0;exitDy=0;" edge="1" parent="1" source="eyfMLkaHUwFLunctIVYx-91" target="eyfMLkaHUwFLunctIVYx-85">
          <mxGeometry width="50" height="50" relative="1" as="geometry">
            <mxPoint x="920" y="580" as="sourcePoint" />
            <mxPoint x="910" y="540" as="targetPoint" />
          </mxGeometry>
        </mxCell>
        <mxCell id="eyfMLkaHUwFLunctIVYx-96" value="" style="endArrow=none;html=1;rounded=0;entryX=1;entryY=0.5;entryDx=0;entryDy=0;exitX=0;exitY=0.5;exitDx=0;exitDy=0;" edge="1" parent="1" source="eyfMLkaHUwFLunctIVYx-17" target="eyfMLkaHUwFLunctIVYx-21">
          <mxGeometry width="50" height="50" relative="1" as="geometry">
            <mxPoint x="1050" y="440" as="sourcePoint" />
            <mxPoint x="1100" y="390" as="targetPoint" />
          </mxGeometry>
        </mxCell>
        <mxCell id="eyfMLkaHUwFLunctIVYx-97" value="" style="endArrow=none;html=1;rounded=0;entryX=0;entryY=0.5;entryDx=0;entryDy=0;exitX=1;exitY=0.5;exitDx=0;exitDy=0;" edge="1" parent="1" source="eyfMLkaHUwFLunctIVYx-17" target="eyfMLkaHUwFLunctIVYx-22">
          <mxGeometry width="50" height="50" relative="1" as="geometry">
            <mxPoint x="1050" y="440" as="sourcePoint" />
            <mxPoint x="1100" y="390" as="targetPoint" />
          </mxGeometry>
        </mxCell>
        <mxCell id="eyfMLkaHUwFLunctIVYx-98" value="IPcím" style="ellipse;whiteSpace=wrap;html=1;" vertex="1" parent="1">
          <mxGeometry x="1540" y="380" width="100" height="50" as="geometry" />
        </mxCell>
        <mxCell id="eyfMLkaHUwFLunctIVYx-99" value="időpont" style="ellipse;whiteSpace=wrap;html=1;" vertex="1" parent="1">
          <mxGeometry x="1370" y="380" width="100" height="50" as="geometry" />
        </mxCell>
        <mxCell id="eyfMLkaHUwFLunctIVYx-100" value="" style="endArrow=none;html=1;rounded=0;entryX=0.5;entryY=1;entryDx=0;entryDy=0;exitX=0.5;exitY=0;exitDx=0;exitDy=0;" edge="1" parent="1" source="eyfMLkaHUwFLunctIVYx-99" target="eyfMLkaHUwFLunctIVYx-17">
          <mxGeometry width="50" height="50" relative="1" as="geometry">
            <mxPoint x="580" y="240" as="sourcePoint" />
            <mxPoint x="630" y="190" as="targetPoint" />
          </mxGeometry>
        </mxCell>
        <mxCell id="eyfMLkaHUwFLunctIVYx-101" value="" style="endArrow=none;html=1;rounded=0;entryX=0.5;entryY=1;entryDx=0;entryDy=0;exitX=0.5;exitY=0;exitDx=0;exitDy=0;" edge="1" parent="1" source="eyfMLkaHUwFLunctIVYx-98" target="eyfMLkaHUwFLunctIVYx-17">
          <mxGeometry width="50" height="50" relative="1" as="geometry">
            <mxPoint x="580" y="240" as="sourcePoint" />
            <mxPoint x="630" y="190" as="targetPoint" />
          </mxGeometry>
        </mxCell>
        <mxCell id="eyfMLkaHUwFLunctIVYx-102" value="" style="rounded=0;whiteSpace=wrap;html=1;" vertex="1" parent="1">
          <mxGeometry x="1400" y="480" width="40" height="60" as="geometry" />
        </mxCell>
        <mxCell id="eyfMLkaHUwFLunctIVYx-103" value="" style="rounded=0;whiteSpace=wrap;html=1;" vertex="1" parent="1">
          <mxGeometry x="1570" y="465" width="40" height="60" as="geometry" />
        </mxCell>
        <mxCell id="eyfMLkaHUwFLunctIVYx-104" value="" style="endArrow=none;html=1;rounded=0;entryX=0.5;entryY=1;entryDx=0;entryDy=0;exitX=0.5;exitY=0;exitDx=0;exitDy=0;" edge="1" parent="1" source="eyfMLkaHUwFLunctIVYx-102" target="eyfMLkaHUwFLunctIVYx-99">
          <mxGeometry width="50" height="50" relative="1" as="geometry">
            <mxPoint x="580" y="240" as="sourcePoint" />
            <mxPoint x="630" y="190" as="targetPoint" />
          </mxGeometry>
        </mxCell>
        <mxCell id="eyfMLkaHUwFLunctIVYx-105" value="" style="endArrow=none;html=1;rounded=0;entryX=0.5;entryY=1;entryDx=0;entryDy=0;exitX=0.5;exitY=0;exitDx=0;exitDy=0;" edge="1" parent="1" source="eyfMLkaHUwFLunctIVYx-103" target="eyfMLkaHUwFLunctIVYx-98">
          <mxGeometry width="50" height="50" relative="1" as="geometry">
            <mxPoint x="580" y="240" as="sourcePoint" />
            <mxPoint x="630" y="190" as="targetPoint" />
          </mxGeometry>
        </mxCell>
        <mxCell id="eyfMLkaHUwFLunctIVYx-114" value="" style="edgeStyle=elbowEdgeStyle;elbow=horizontal;endArrow=classic;html=1;curved=0;rounded=0;endSize=8;startSize=8;entryX=0;entryY=0.5;entryDx=0;entryDy=0;dashed=1;dashPattern=8 8;" edge="1" parent="1">
          <mxGeometry width="50" height="50" relative="1" as="geometry">
            <mxPoint x="-240" y="760" as="sourcePoint" />
            <mxPoint x="-720" y="290.00000000000045" as="targetPoint" />
            <Array as="points">
              <mxPoint x="-830" y="530" />
            </Array>
          </mxGeometry>
        </mxCell>
        <mxCell id="eyfMLkaHUwFLunctIVYx-117" value="" style="edgeStyle=elbowEdgeStyle;elbow=horizontal;endArrow=none;html=1;curved=0;rounded=0;endSize=8;startSize=8;dashed=1;dashPattern=8 8;startFill=0;entryX=0.5;entryY=0;entryDx=0;entryDy=0;" edge="1" parent="1" target="eyfMLkaHUwFLunctIVYx-19">
          <mxGeometry width="50" height="50" relative="1" as="geometry">
            <mxPoint x="-250" y="760" as="sourcePoint" />
            <mxPoint x="-230" y="360" as="targetPoint" />
            <Array as="points">
              <mxPoint x="-240" y="550" />
            </Array>
          </mxGeometry>
        </mxCell>
        <mxCell id="eyfMLkaHUwFLunctIVYx-119" value="" style="edgeStyle=elbowEdgeStyle;elbow=horizontal;endArrow=classic;html=1;curved=0;rounded=0;endSize=8;startSize=8;entryX=0;entryY=0.5;entryDx=0;entryDy=0;dashed=1;dashPattern=12 12;" edge="1" parent="1" target="eyfMLkaHUwFLunctIVYx-19">
          <mxGeometry width="50" height="50" relative="1" as="geometry">
            <mxPoint x="240" y="760" as="sourcePoint" />
            <mxPoint x="-230" y="410" as="targetPoint" />
            <Array as="points">
              <mxPoint x="-210" y="560" />
            </Array>
          </mxGeometry>
        </mxCell>
        <mxCell id="eyfMLkaHUwFLunctIVYx-120" value="" style="edgeStyle=elbowEdgeStyle;elbow=horizontal;endArrow=none;html=1;curved=0;rounded=0;endSize=8;startSize=8;entryX=0;entryY=0.5;entryDx=0;entryDy=0;dashed=1;dashPattern=8 8;startFill=0;" edge="1" parent="1" target="eyfMLkaHUwFLunctIVYx-20">
          <mxGeometry width="50" height="50" relative="1" as="geometry">
            <mxPoint x="240" y="760" as="sourcePoint" />
            <mxPoint x="-230" y="410" as="targetPoint" />
          </mxGeometry>
        </mxCell>
        <mxCell id="eyfMLkaHUwFLunctIVYx-121" value="" style="edgeStyle=elbowEdgeStyle;elbow=horizontal;endArrow=classic;html=1;curved=0;rounded=0;endSize=8;startSize=8;entryX=0;entryY=0.5;entryDx=0;entryDy=0;dashed=1;dashPattern=12 12;" edge="1" parent="1" target="eyfMLkaHUwFLunctIVYx-81">
          <mxGeometry width="50" height="50" relative="1" as="geometry">
            <mxPoint x="1230" y="760" as="sourcePoint" />
            <mxPoint x="930" y="410" as="targetPoint" />
            <Array as="points">
              <mxPoint x="700" y="410" />
            </Array>
          </mxGeometry>
        </mxCell>
        <mxCell id="eyfMLkaHUwFLunctIVYx-123" value="" style="edgeStyle=elbowEdgeStyle;elbow=horizontal;endArrow=none;html=1;curved=0;rounded=0;endSize=8;startSize=8;entryX=0;entryY=0.5;entryDx=0;entryDy=0;startFill=0;dashed=1;dashPattern=12 12;" edge="1" parent="1" target="eyfMLkaHUwFLunctIVYx-21">
          <mxGeometry width="50" height="50" relative="1" as="geometry">
            <mxPoint x="1230" y="760" as="sourcePoint" />
            <mxPoint x="1140" y="410" as="targetPoint" />
          </mxGeometry>
        </mxCell>
        <mxCell id="eyfMLkaHUwFLunctIVYx-124" value="" style="edgeStyle=elbowEdgeStyle;elbow=horizontal;endArrow=none;html=1;curved=0;rounded=0;endSize=8;startSize=8;entryX=1;entryY=0.5;entryDx=0;entryDy=0;startFill=0;dashed=1;dashPattern=12 12;" edge="1" parent="1" target="eyfMLkaHUwFLunctIVYx-22">
          <mxGeometry width="50" height="50" relative="1" as="geometry">
            <mxPoint x="660" y="840" as="sourcePoint" />
            <mxPoint x="1140" y="410" as="targetPoint" />
            <Array as="points">
              <mxPoint x="1780" y="520" />
            </Array>
          </mxGeometry>
        </mxCell>
        <mxCell id="eyfMLkaHUwFLunctIVYx-125" value="" style="edgeStyle=elbowEdgeStyle;elbow=horizontal;endArrow=classic;html=1;curved=0;rounded=0;endSize=8;startSize=8;entryX=0.5;entryY=0;entryDx=0;entryDy=0;dashed=1;dashPattern=12 12;" edge="1" parent="1" target="eyfMLkaHUwFLunctIVYx-81">
          <mxGeometry width="50" height="50" relative="1" as="geometry">
            <mxPoint x="660" y="840" as="sourcePoint" />
            <mxPoint x="980" y="450" as="targetPoint" />
            <Array as="points">
              <mxPoint x="660" y="570" />
            </Array>
          </mxGeometry>
        </mxCell>
      </root>
    </mxGraphModel>
  </diagram>
</mxfile>
